# xmcd
# 
# Track frame offsets:
#     150
#     38925
#     60075
#     83267
#     102377
#     130445
#     156125
#     180120
#     207537
#     229985
#     253937
# 
# Disc length: 3632
# 
# Revision: 1
# Processed by: cddbd v1.5.2PL0 Copyright (c) Steve Scherf et al.
# Submitted via: BonkEnc v1.0.8
# 
DISCID=8a0e2e0b
DTITLE=Richie Beirach - Themes and Impromptu Variations
DYEAR=1991
DGENRE=Contemporary Jazz
TTITLE0=Prelude op28 #4 in E minor
TTITLE1=From Foreign Lands and People Scenes from Childhood #1
TTITLE2=Impresiones Intimas #1
TTITLE3=Peace Peace
TTITLE4=Gnoissienes #1
TTITLE5=Prelude #6 (For the left hand)
TTITLE6=Bagatelle #6
TTITLE7=Sunday Song
TTITLE8=Touch Stone
TTITLE9=Musica Callada #1
TTITLE10=Etude op10 #3 in E major
EXTD=
EXTT0=
EXTT1=
EXTT2=
EXTT3=
EXTT4=
EXTT5=
EXTT6=
EXTT7=
EXTT8=
EXTT9=
EXTT10=
PLAYORDER=
